<svg width="740" height="141" viewBox="0 0 740 141" fill="none" xmlns="http://www.w3.org/2000/svg">
<path fill-rule="evenodd" clip-rule="evenodd" d="M0.5 70.709C0.5 31.972 31.9026 0.569336 70.6397 0.569336H232.003C270.74 0.569336 302.143 31.972 302.143 70.709C302.143 109.446 270.74 140.849 232.003 140.849H70.6397C31.9027 140.849 0.5 109.446 0.5 70.709ZM178.041 61.9416H226.262V77.2846H178.041V61.9416ZM125.436 61.9416H77.2153V77.2846H125.436V61.9416ZM540 5.35554H629.681V60.9646H648.552V5.35554H738.233V136.059H648.552V84.8335H629.681V136.059H540V5.35554ZM401.613 6.44291H310.111V137.146H401.613V87.2122L443.258 137.146H524.75V104.683L496.959 73.2648L524.75 41.1189V6.44291H443.258L401.613 58.8988V6.44291Z" fill="#102D69"/>
</svg>
