<?xml version="1.0" standalone="no"?>
<!DOCTYPE svg PUBLIC "-//W3C//DTD SVG 20010904//EN"
 "http://www.w3.org/TR/2001/REC-SVG-20010904/DTD/svg10.dtd">
<svg version="1.0" xmlns="http://www.w3.org/2000/svg"
 width="1200.000000pt" height="977.000000pt" viewBox="0 0 1200.000000 977.000000"
 preserveAspectRatio="xMidYMid meet">

<g transform="translate(0.000000,977.000000) scale(0.100000,-0.100000)"
fill="#000000" stroke="none">
<path d="M9822 9283 c-123 -408 -377 -1439 -418 -1699 l-6 -41 -99 -12 c-138
-15 -302 -14 -342 3 -18 7 -41 23 -51 35 -19 21 -19 23 22 189 53 213 66 314
59 477 -6 155 -27 234 -90 327 -100 148 -302 232 -502 207 -231 -29 -462 -181
-708 -469 -173 -202 -213 -244 -307 -327 -124 -110 -247 -193 -373 -253 -174
-83 -261 -102 -592 -130 -314 -26 -504 -124 -668 -345 -67 -91 -267 -325 -277
-325 -4 0 -7 98 -8 218 -2 403 -47 736 -120 882 -21 43 -37 60 -72 78 -103 54
-303 3 -496 -124 -86 -56 -218 -187 -264 -261 -151 -238 -239 -635 -196 -881
39 -222 137 -314 336 -314 188 0 459 92 665 226 39 25 71 41 73 36 5 -15 -36
-134 -81 -235 -122 -272 -345 -570 -503 -671 -230 -147 -807 -266 -1299 -266
-501 -1 -772 97 -962 350 -122 162 -187 308 -313 708 -125 394 -156 542 -246
1174 -80 559 -94 624 -150 702 -62 85 -207 197 -294 227 -33 12 -60 30 -80 56
-42 53 -121 112 -200 148 -88 41 -208 49 -258 18 -39 -25 -70 -73 -78 -124 -6
-34 -12 -39 -64 -63 -96 -43 -105 -58 -104 -172 0 -59 10 -142 24 -212 13 -63
24 -154 24 -201 1 -79 -1 -88 -27 -122 -15 -20 -80 -75 -145 -123 -203 -151
-217 -162 -267 -211 -72 -71 -111 -138 -140 -237 -29 -101 -33 -202 -10 -246
22 -42 76 -80 114 -80 42 0 66 13 262 141 250 164 360 207 423 165 68 -44 124
-286 261 -1136 128 -789 183 -1063 240 -1187 28 -63 42 -77 500 -515 645 -616
988 -983 1081 -1155 23 -43 25 -55 20 -119 -14 -161 -136 -701 -347 -1539
-103 -412 -329 -1289 -345 -1337 -4 -14 0 -18 20 -18 14 0 26 3 26 6 0 3 36
141 80 307 252 956 488 1922 568 2322 44 217 54 300 42 345 -41 154 -390 532
-1229 1336 -393 376 -377 355 -424 539 -48 187 -94 437 -193 1060 -102 641
-167 954 -219 1061 -34 68 -91 100 -163 89 -72 -10 -211 -81 -381 -194 -215
-144 -224 -147 -279 -88 -34 36 -37 88 -13 189 40 171 86 229 310 395 170 126
244 192 268 238 22 41 20 153 -6 290 -53 282 -51 313 27 356 29 16 54 29 56
29 2 0 6 -26 9 -57 14 -134 99 -315 192 -410 108 -110 226 -112 255 -3 19 71
-32 280 -98 404 -55 101 -151 155 -253 142 l-51 -7 6 28 c11 43 57 84 103 90
80 11 218 -48 311 -132 l47 -43 -28 -26 c-38 -35 -47 -65 -47 -160 0 -144 67
-277 154 -306 41 -13 98 6 115 38 30 56 5 186 -59 315 -16 33 -30 62 -30 64 0
15 116 -64 177 -121 129 -121 130 -121 218 -736 97 -672 122 -793 237 -1160
106 -338 149 -454 215 -580 122 -232 269 -378 465 -462 366 -155 1193 -119
1758 78 116 40 164 62 230 107 227 154 509 590 591 912 19 75 25 85 88 150 99
104 188 208 269 317 169 227 333 303 704 329 193 13 323 39 452 90 255 101
462 264 729 574 202 234 334 350 494 433 193 100 356 107 529 22 254 -125 314
-409 189 -901 -14 -57 -28 -105 -30 -107 -3 -3 -9 8 -15 24 -28 74 -57 121
-113 180 -94 102 -223 152 -361 141 -235 -18 -440 -214 -541 -518 -34 -105
-37 -120 -33 -205 3 -81 8 -100 41 -167 69 -140 209 -241 379 -275 136 -27
265 8 351 94 66 66 179 281 262 499 21 55 39 102 41 104 1 1 15 -9 30 -23 52
-47 159 -55 425 -30 l66 7 -23 -139 c-32 -186 -64 -471 -64 -564 0 -150 43
-251 159 -373 132 -139 338 -257 646 -370 189 -69 301 -104 700 -216 287 -81
435 -124 548 -162 20 -7 37 -17 37 -23 0 -6 -12 -78 -26 -161 -14 -82 -28
-167 -31 -188 -7 -48 -7 -48 -203 -81 -292 -49 -595 -82 -1235 -136 -365 -31
-513 -46 -539 -56 -16 -6 -29 -32 -22 -43 14 -22 57 -511 45 -511 -9 0 -163
109 -644 456 -1100 793 -1093 789 -1315 814 -346 39 -626 -122 -793 -455 -80
-160 -101 -323 -54 -415 21 -43 24 -45 62 -43 22 0 74 11 115 24 105 31 310
32 423 1 127 -35 233 -83 382 -173 77 -47 336 -205 575 -350 239 -146 535
-326 657 -400 123 -74 223 -137 223 -142 0 -4 -87 -152 -194 -330 -453 -754
-747 -1294 -856 -1573 -86 -220 -120 -489 -127 -1012 l-5 -372 21 0 c21 0 21
3 21 193 1 560 43 940 131 1169 104 271 399 813 860 1580 115 191 209 353 209
360 -1 7 -128 89 -283 182 -155 94 -518 314 -806 490 -697 425 -733 440 -1026
440 -156 0 -176 -2 -247 -26 -85 -28 -87 -27 -107 31 -45 136 71 425 237 588
160 157 406 225 642 179 161 -31 211 -64 1209 -783 678 -489 705 -508 727
-499 15 6 16 18 10 139 -4 72 -15 200 -25 282 -10 83 -15 153 -12 157 6 7 214
29 451 48 705 57 1164 110 1438 166 18 4 32 2 32 -3 0 -5 -54 -274 -119 -599
-134 -662 -193 -979 -221 -1199 -39 -310 -52 -1662 -20 -2185 14 -242 39 -476
63 -598 20 -98 24 -107 46 -110 21 -3 23 -1 17 25 -41 191 -69 444 -87 803
-14 273 -6 1720 11 1915 12 144 43 353 96 639 36 196 248 1249 261 1300 7 26
16 31 109 57 56 15 126 39 157 53 68 30 133 87 140 124 13 69 -65 149 -215
221 -77 36 -98 50 -98 67 0 11 11 92 25 180 112 722 127 1296 41 1644 -35 142
-78 236 -176 383 -230 346 -448 532 -665 567 -119 19 -212 -8 -351 -100 -300
-200 -550 -468 -688 -736 l-37 -72 -52 -6 c-29 -4 -63 -10 -76 -13 -23 -6 -24
-5 -17 38 32 212 225 1013 346 1444 88 313 89 315 62 315 -16 0 -24 -13 -40
-67z m-8682 -493 c45 -23 69 -54 110 -142 63 -135 96 -300 70 -349 -13 -24
-68 -26 -116 -3 -98 47 -213 264 -239 451 -8 59 -6 60 83 62 35 1 66 -6 92
-19z m387 -161 c63 -125 85 -217 62 -257 -66 -118 -217 121 -185 293 8 39 40
79 59 72 7 -2 35 -50 64 -108z m9238 -220 c94 -39 172 -95 281 -203 146 -146
316 -383 372 -521 137 -335 145 -887 26 -1700 -13 -93 -29 -195 -35 -226 l-11
-56 -119 38 c-66 21 -186 57 -267 80 -757 212 -938 272 -1185 395 -285 143
-446 309 -477 494 -11 67 2 242 36 475 41 287 46 314 63 319 40 11 121 17 121
9 0 -5 -13 -47 -28 -94 -50 -146 -65 -246 -59 -393 5 -149 22 -210 83 -302
123 -186 402 -241 607 -121 92 54 214 209 275 349 105 244 75 478 -83 642
-171 178 -400 204 -629 70 l-58 -35 27 48 c108 187 293 396 492 554 114 91
239 170 301 190 78 26 186 21 267 -12z m-5543 -339 c37 0 84 -61 107 -136 53
-180 81 -420 86 -739 5 -348 12 -319 -98 -393 -222 -147 -469 -236 -657 -237
-150 0 -210 32 -261 138 -75 159 -62 455 32 730 75 220 176 365 335 479 140
100 328 175 408 163 16 -3 37 -5 48 -5z m3278 -121 c68 -16 157 -67 202 -118
23 -25 61 -89 86 -141 l45 -95 -27 -79 c-63 -184 -204 -469 -268 -542 -71 -81
-228 -116 -353 -79 -134 39 -255 128 -304 223 -35 69 -54 158 -46 221 29 235
200 495 382 582 94 45 172 53 283 28z m1695 -284 c82 -39 183 -141 223 -225
92 -195 42 -449 -133 -668 -81 -101 -159 -154 -254 -176 -83 -19 -113 -20
-183 -5 -202 43 -327 219 -328 460 0 95 26 238 67 362 32 98 40 111 82 147 51
44 136 92 214 121 81 30 232 23 312 -16z m1351 -2076 c91 -45 174 -116 174
-149 0 -46 -84 -98 -228 -144 -130 -41 -122 -55 -87 154 21 131 33 180 43 180
8 0 52 -19 98 -41z"/>
</g>
</svg>
