<svg width="1167" height="888" viewBox="0 0 1167 888" fill="none" xmlns="http://www.w3.org/2000/svg">
<path d="M227.553 882.691L297.053 590.191L135.053 412.191L85.5532 173.191L14.5532 209.191L5.55322 189.191L25.5532 150.691L61.5532 124.691V56.1907L94.0532 49.6907L118.053 87.1907L103.053 105.691L76.5532 37.1907L129.053 44.6907L147.553 87.1907L135.053 105.691L118.053 56.1907L174.053 93.1907L215.053 305.191L268.553 366.191H436.553L526.053 264.191L518.553 140.691H471.553L413.053 209.191L425.553 264.191L535.053 236.691L602.053 173.191H680.553L813.553 49.6907L881.053 105.691L852.553 226.691L779.053 236.691L766.553 160.691L852.553 140.691L888.553 173.191L955.553 181.691H1025.55L1013.05 244.191H944.553L962.053 140.691L1038.05 93.1907L1112.55 140.691L1132.55 305.191L1090.05 562.691V882.691H761.553L780.053 733.191L886.053 552.691L704.053 447.191H642.053L653.053 383.691L742.553 358.691L919.553 483.191V423.191L1153.55 396.191L1090.05 349.691L928.053 292.691L919.553 209.191L970.553 1.1907" stroke="black" stroke-width="10"/>
</svg>
