<svg width="26" height="20" viewBox="0 0 26 20" fill="none" xmlns="http://www.w3.org/2000/svg">
<path d="M4.05129 19.2084C4.81816 17.7564 6.70745 14.3141 7.05129 12.7084C7.23239 11.8627 7.23769 11.514 7.05129 10.7084C6.87501 9.94655 7.02087 9.91049 6.55129 9.34837C6.0817 8.78626 5.98105 8.66259 5.05129 8.66259C4.8936 8.66259 4.52077 8.73005 4.05129 8.98862C3.58181 9.24719 3.16629 10.7316 3.45814 10.8661C3.94604 11.0909 3.72632 11.3825 3.55098 11.7084C3.44211 11.9108 2.72288 12.6311 2.49274 12.3388C2.36513 12.1767 2.15988 11.0717 2.38738 11.1584C2.69298 11.2748 2.38666 12.5028 2.07849 12.6086M2.07849 12.6086C1.7838 12.7098 2.22304 12.4965 2.07849 12.6086ZM2.07849 12.6086C1.63272 12.9544 1.32848 11.6652 1.65505 11.1584C1.99552 10.63 0.922155 12.2426 0.550883 12.1365C0.11823 12.0128 0.752985 11.4844 0.752973 11.1584C0.752966 10.9623 1.21274 9.74185 1.70984 8.66259C1.89433 8.26205 1.94203 7.55848 2.14294 7.1699C2.4006 6.67158 2.66601 5.9521 3.10541 5.7084C3.45001 5.51729 3.56111 5.57873 5.05129 6.1106C5.68126 6.33544 5.57401 6.24666 6.10223 6.54905C6.98597 7.05495 7.60075 7.42594 8.80866 7.42594C9.48066 7.42594 9.28773 7.43617 9.5861 6.30172C9.85815 5.26734 9.96397 3.6776 9.12982 3.30003C8.81296 3.1566 8.12652 3.30003 7.87787 3.62606C7.43643 4.20486 7.37982 4.35914 7.29792 5.14376C7.24664 5.63504 7.42576 5.84078 7.73058 6.1106C8.0354 6.38041 9.28389 6.40969 10.0872 5.85202C10.5933 5.5007 10.5217 4.84612 11.1458 4.57041C11.6766 4.33594 11.5001 4.35874 12.0509 4.2084C13.3244 3.86083 12.6072 2.40964 13.8644 2.6907C14.4847 2.82937 14.8615 2.86245 15.3804 3.30003C16.0248 3.84342 16.135 7.2676 15.3804 7.85247C14.9301 8.20146 12.7151 8.22985 12.2804 7.85247C11.8291 7.46062 12.0749 5.99036 12.3529 5.40543C12.6715 4.73488 14.9841 4.30797 15.5277 4.7084C16.1076 5.13561 15.8498 4.94112 16.3193 4.95264C16.744 4.96307 17.2112 5.13295 17.5253 4.57041C17.8014 4.07575 19.5549 3.38521 20.0402 3.54792C20.5097 3.70531 20.9235 5.2291 20.5779 5.59654C20.2064 5.99144 18.7753 6.6538 18.376 6.30172C17.7641 5.76218 16.423 4.86607 16.8648 4.11875C17.2419 3.48068 17.6012 2.9065 18.2456 2.91358C18.8808 2.92056 21.2577 1.97944 21.5115 2.6907C21.9165 3.82617 21.2823 9.07868 21.3571 9.87791C21.5781 12.2388 25.5578 11.949 24.4754 13.7441C22.8553 16.431 23.893 14.5681 23.0513 16.2084C22.9665 16.3736 22.1724 17.5813 22.0513 17.7084C21.7977 17.9745 21.1904 16.9386 21.0513 17.2084C20.9122 17.4782 21.1818 18.3008 21.0513 18.7084C20.9208 19.116 20.5513 19.2084 20.0513 18.7084C19.6608 18.318 19.7521 17.8767 19.8082 17.2084C19.9419 15.6169 21.5976 14.6387 21.3572 13.3843C21.256 12.856 20.3827 13.1297 20.0513 13.2084C19.4871 13.3424 19.309 13.4611 19.0513 13.7084C18.5012 14.2363 18.3169 14.8121 18.05 15.5766C17.4689 17.2407 17.3319 19.5564 17.3319 19.5564M13.8719 19.5564L14.2625 16.847L17.9211 11.1584C17.9211 11.1584 16.9177 10.2863 15.3804 9.94655C14.9417 9.84961 13.3091 9.34837 13.3091 9.34837C13.3091 9.34837 13.7104 9.24025 14.1652 9.34837C15.0214 9.55188 14.8672 9.55094 15.5277 9.6744C16.4298 9.84303 17.9211 10.6525 17.9211 10.6525V8.98862C17.9211 8.98862 22.8822 8.09064 24.0513 7.7084C25.2204 7.32617 19.315 7.09992 18.376 7.09992C17.437 7.09992 17.1628 6.63496 16.6231 5.27867C16.3594 4.61581 16.4333 4.63284 16.4298 3.89587C16.4209 2.0154 17.5253 0.208405 17.5253 0.208405" stroke="black" stroke-width="0.8"/>
</svg>
